<svg aria-hidden="true" style="position: absolute; width: 0; height: 0; overflow: hidden;" version="1.1" xmlns="http://www.w3.org/2000/svg" xmlns:xlink="http://www.w3.org/1999/xlink">
<defs>
    <symbol id="icon-youtube" viewBox="0 0 44 32">
        <path d="M37.418 0.901c1.807 0.496 3.231 1.958 3.714 3.814 0.878 3.364 0.878 10.382 0.878 10.382s0 7.018-0.878 10.382c-0.483 1.856-1.907 3.317-3.714 3.814-3.276 0.901-16.413 0.901-16.413 0.901s-13.137 0-16.413-0.901c-1.808-0.496-3.231-1.958-3.714-3.814-0.878-3.364-0.878-10.382-0.878-10.382s0-7.019 0.878-10.382c0.483-1.856 1.907-3.318 3.714-3.814 3.276-0.901 16.413-0.901 16.413-0.901s13.137 0 16.413 0.901zM17.067 9.19v13.128l10.503-6.564-10.503-6.564z"></path>
    </symbol>
    <symbol id="icon-send-email" viewBox="0 0 32 32">
        <path d="M30.276 1.724c0.362 0.362 0.485 0.9 0.316 1.383l-9.333 26.667c-0.181 0.516-0.658 0.869-1.204 0.892s-1.051-0.291-1.273-0.791l-5.125-11.531-11.531-5.125c-0.5-0.222-0.813-0.727-0.791-1.273s0.376-1.024 0.892-1.204l26.667-9.333c0.484-0.169 1.021-0.046 1.383 0.316zM16.257 17.629l3.596 8.090 6.292-17.978-9.888 9.888zM24.259 5.855l-17.978 6.292 8.090 3.596 9.888-9.888z"></path>
    </symbol>
    <symbol id="icon-twitter" viewBox="0 0 39 32">
        <path d="M18.513 8.382l0.083 1.363-1.377-0.167c-5.014-0.64-9.394-2.809-13.113-6.452l-1.818-1.808-0.468 1.335c-0.992 2.976-0.358 6.119 1.708 8.232 1.102 1.168 0.854 1.335-1.047 0.64-0.661-0.223-1.24-0.389-1.295-0.306-0.193 0.195 0.468 2.726 0.992 3.727 0.716 1.391 2.176 2.753 3.774 3.56l1.35 0.64-1.598 0.028c-1.543 0-1.598 0.028-1.433 0.612 0.551 1.808 2.727 3.727 5.152 4.561l1.708 0.584-1.488 0.89c-2.204 1.279-4.793 2.002-7.383 2.058-1.24 0.028-2.259 0.139-2.259 0.223 0 0.278 3.361 1.836 5.317 2.448 5.868 1.808 12.838 1.029 18.072-2.058 3.719-2.197 7.438-6.564 9.174-10.791 0.937-2.253 1.873-6.369 1.873-8.344 0-1.279 0.083-1.446 1.625-2.976 0.909-0.89 1.763-1.863 1.928-2.142 0.275-0.528 0.248-0.528-1.157-0.056-2.342 0.834-2.672 0.723-1.515-0.528 0.854-0.89 1.873-2.503 1.873-2.976 0-0.083-0.413 0.056-0.882 0.306-0.496 0.278-1.598 0.695-2.424 0.946l-1.488 0.473-1.35-0.918c-0.744-0.501-1.791-1.057-2.342-1.224-1.405-0.389-3.554-0.334-4.821 0.111-3.444 1.252-5.62 4.478-5.372 8.010z"></path>
    </symbol>
    <symbol id="icon-basketball" viewBox="0 0 32 32">
        <path d="M30.341 15.149c0 1.026-0.105 2.050-0.31 3.049-0.2 0.975-0.496 1.932-0.884 2.847-0.379 0.899-0.85 1.765-1.399 2.573-0.541 0.803-1.165 1.556-1.851 2.242-0.687 0.683-1.442 1.305-2.245 1.849-0.81 0.546-1.678 1.015-2.577 1.397-0.916 0.386-1.876 0.682-2.85 0.882-1 0.206-2.028 0.311-3.056 0.311s-2.056-0.105-3.055-0.311c-0.976-0.2-1.935-0.496-2.851-0.882-0.899-0.381-1.768-0.851-2.578-1.397-0.802-0.544-1.558-1.166-2.243-1.849-0.686-0.687-1.31-1.439-1.852-2.242-0.547-0.808-1.018-1.674-1.399-2.573-0.388-0.915-0.685-1.872-0.886-2.847-0.203-0.999-0.307-2.023-0.307-3.049s0.104-2.053 0.307-3.050c0.201-0.975 0.498-1.934 0.886-2.847 0.381-0.899 0.852-1.766 1.399-2.574 0.542-0.803 1.166-1.555 1.852-2.242 0.685-0.684 1.441-1.304 2.243-1.847 0.81-0.548 1.679-1.018 2.578-1.4 0.916-0.387 1.875-0.684 2.851-0.882 0.999-0.204 2.027-0.308 3.055-0.308s2.056 0.104 3.056 0.308c0.974 0.198 1.933 0.495 2.85 0.882 0.899 0.382 1.767 0.851 2.577 1.4 0.802 0.543 1.558 1.163 2.244 1.847 0.685 0.687 1.309 1.439 1.851 2.242 0.55 0.808 1.020 1.675 1.399 2.574 0.388 0.914 0.684 1.872 0.884 2.847 0.205 0.996 0.31 2.023 0.31 3.050zM9.642 3.448c-3.613 1.704-6.309 5.028-7.15 9.034 0.342 0.003 5.74 0.071 11.961-1.579-2.242-3.978-4.638-7.225-4.811-7.455zM15.526 12.895c-6.671 1.994-13.072 1.851-13.301 1.842-0.004 0.139-0.010 0.274-0.010 0.413 0 3.323 1.256 6.353 3.319 8.644-0.004-0.007 3.541-6.288 10.532-8.545 0.169-0.056 0.341-0.107 0.511-0.155-0.325-0.735-0.68-1.472-1.051-2.198zM23.726 5.44c-2.281-2.008-5.276-3.227-8.556-3.227-1.053 0-2.074 0.127-3.053 0.362 0.194 0.26 2.628 3.484 4.843 7.546 4.888-1.83 6.734-4.635 6.766-4.682zM17.46 17.237c-0.029 0.010-0.058 0.018-0.086 0.028-7.644 2.661-10.14 8.024-10.167 8.082 2.199 1.708 4.958 2.738 7.963 2.738 1.794 0 3.503-0.365 5.058-1.025-0.192-1.13-0.945-5.092-2.768-9.823zM22.409 25.878c2.909-1.96 4.975-5.073 5.551-8.678-0.267-0.086-3.891-1.232-8.073-0.562 1.699 4.663 2.39 8.461 2.522 9.24zM17.957 12.050c0.301 0.617 0.592 1.245 0.861 1.876 0.096 0.226 0.189 0.448 0.28 0.67 4.451-0.559 8.835 0.382 9.023 0.42-0.029-3.067-1.128-5.881-2.946-8.085-0.025 0.035-2.102 3.033-7.217 5.119z"></path>
    </symbol>
    <symbol id="icon-clubs-and-groups" viewBox="0 0 32 32">
        <path d="M19.727 15.655c-0.233 0-0.45-0.064-0.643-0.167v0.003c0 0.367-0.143 0.712-0.402 0.971s-0.604 0.402-0.971 0.402c-0.237 0-0.457-0.066-0.651-0.172-0.020 0.336-0.154 0.65-0.394 0.89-0.259 0.259-0.604 0.402-0.971 0.402-0.729 0-1.322-0.573-1.365-1.292-0.226 0.122-0.481 0.186-0.744 0.169-0.718-0.047-1.28-0.667-1.28-1.412v-6.174l-0.703 1.218c-0.268 0.466-0.769 0.755-1.309 0.755-0.263 0-0.523-0.069-0.753-0.201-0.286-0.166-0.491-0.433-0.577-0.752s-0.041-0.653 0.124-0.939c0 0 2.3-3.983 2.44-4.227 0.017-0.037 0.064-0.143 0.105-0.234 0.039-0.087 0.072-0.176 0.103-0.265 0.694-1.958 2.411-3.174 4.482-3.174 2.69 0 4.878 2.373 4.878 5.289l0 7.539c0 0.367-0.143 0.712-0.401 0.971s-0.604 0.402-0.971 0.402v-0zM16.222 2.184c-1.78 0-3.198 1.005-3.795 2.689-0.038 0.107-0.078 0.214-0.124 0.318-0.135 0.302-0.135 0.302-0.172 0.345l-0.005-0.004c-0.188 0.354-0.746 1.321-2.403 4.189-0.068 0.118-0.086 0.254-0.051 0.385s0.12 0.241 0.236 0.308c0.362 0.208 0.859 0.074 1.065-0.286l1.384-2.397c0.083-0.143 0.25-0.213 0.41-0.17s0.27 0.187 0.27 0.352v7.534c0 0.355 0.268 0.662 0.598 0.684 0.19 0.010 0.367-0.054 0.501-0.187 0.121-0.121 0.188-0.282 0.188-0.455v-4.927c0-0.201 0.163-0.365 0.365-0.365s0.365 0.163 0.365 0.365l-0 6.047c0 0.355 0.289 0.643 0.643 0.643 0.172 0 0.334-0.067 0.455-0.188s0.188-0.283 0.188-0.455v-6.047c0-0.201 0.163-0.365 0.365-0.365s0.365 0.163 0.365 0.365l-0 4.871v0.057c0 0.354 0.289 0.643 0.643 0.643 0.172 0 0.333-0.067 0.455-0.188s0.188-0.282 0.188-0.455v-4.927c0-0.201 0.163-0.365 0.365-0.365s0.365 0.163 0.365 0.365l-0 3.719c0 0.355 0.289 0.643 0.643 0.643 0.172 0 0.334-0.067 0.455-0.188s0.188-0.283 0.188-0.456l0-7.539c0-2.514-1.861-4.56-4.149-4.56l0-0z"></path>
        <path d="M5.392 20.895l5.294-3.176c0.638-0.383 1.46-0.22 1.869 0.371 0.149 0.215 0.226 0.467 0.238 0.722 0.197-0.103 0.412-0.159 0.631-0.159 0.112 0 0.224 0.014 0.335 0.042 0.356 0.089 0.655 0.311 0.844 0.625s0.244 0.684 0.155 1.039c-0.082 0.329-0.282 0.605-0.56 0.795 0.194 0.115 0.362 0.271 0.481 0.47 0.189 0.315 0.244 0.684 0.155 1.039s-0.311 0.655-0.626 0.844l-0.002 0.001c0.191 0.115 0.356 0.269 0.474 0.466 0.189 0.315 0.244 0.684 0.155 1.039s-0.311 0.655-0.626 0.844l-6.464 3.878c-1.207 0.724-2.601 0.973-3.927 0.703-1.337-0.273-2.445-1.042-3.118-2.165-1.066-1.776-0.906-3.875 0.416-5.477 0.061-0.073 0.12-0.148 0.174-0.225 0.057-0.082 0.124-0.178 0.147-0.21 0.137-0.244 2.37-4.268 2.37-4.267 0.226-0.407 0.648-0.637 1.084-0.637 0.203 0 0.41 0.050 0.6 0.156 0.23 0.128 0.423 0.316 0.558 0.541 0.278 0.463 0.287 1.042 0.026 1.51l-0.683 1.23zM5.424 18.53c-0.071-0.118-0.168-0.212-0.287-0.279-0.246-0.136-0.556-0.047-0.691 0.198-1.598 2.879-2.143 3.86-2.353 4.209l0.005 0.001c-0.018 0.058-0.018 0.058-0.21 0.333-0.065 0.093-0.136 0.182-0.209 0.27-1.137 1.377-1.269 3.111-0.353 4.637 0.567 0.945 1.504 1.593 2.639 1.825 1.147 0.233 2.356 0.016 3.405-0.613l6.465-3.878c0.148-0.088 0.252-0.229 0.293-0.395s0.016-0.339-0.073-0.487c-0.182-0.304-0.578-0.404-0.882-0.221l-3.189 1.913c-0.173 0.104-0.397 0.048-0.501-0.125s-0.048-0.397 0.125-0.501l4.225-2.535c0.148-0.089 0.252-0.229 0.294-0.395s0.016-0.34-0.073-0.487c-0.182-0.304-0.578-0.403-0.882-0.221l-4.225 2.535c-0.173 0.104-0.397 0.048-0.501-0.125s-0.047-0.397 0.125-0.501l5.186-3.111c0.148-0.089 0.252-0.229 0.293-0.396s0.016-0.339-0.073-0.487c-0.088-0.147-0.229-0.252-0.395-0.293s-0.34-0.016-0.487 0.072l-0.96 0.576c-0 0-0 0-0.001 0h-0l-4.225 2.535c-0.173 0.104-0.397 0.048-0.501-0.125s-0.048-0.397 0.125-0.501l4.225-2.535c0.148-0.089 0.252-0.229 0.294-0.395 0.046-0.182 0.011-0.369-0.097-0.525-0.188-0.272-0.589-0.344-0.894-0.161l-6.46 3.876c-0.141 0.084-0.323 0.064-0.441-0.051s-0.146-0.295-0.066-0.439l1.343-2.42c0.135-0.242 0.13-0.541-0.014-0.78l0-0z"></path>
        <path d="M30.691 28.274c-0.673 1.123-1.781 1.892-3.118 2.165-1.326 0.27-2.72 0.021-3.927-0.703l-6.465-3.878c-0.315-0.189-0.537-0.488-0.626-0.844s-0.033-0.724 0.155-1.039c0.118-0.197 0.283-0.351 0.474-0.466l-0.002-0.001c-0.315-0.189-0.537-0.488-0.626-0.844s-0.034-0.725 0.155-1.040c0.122-0.202 0.288-0.36 0.478-0.472-0.276-0.19-0.475-0.466-0.557-0.793-0.089-0.356-0.034-0.725 0.155-1.039s0.488-0.537 0.844-0.626c0.111-0.028 0.224-0.042 0.335-0.042 0.219 0 0.434 0.056 0.631 0.159 0.012-0.256 0.088-0.507 0.238-0.722 0.41-0.591 1.23-0.755 1.869-0.371l5.294 3.176-0.682-1.229c-0.262-0.469-0.252-1.048 0.025-1.511 0.135-0.225 0.329-0.412 0.559-0.542 0.19-0.105 0.395-0.155 0.598-0.155 0.436 0 0.859 0.23 1.084 0.637 0.785 1.414 2.266 4.082 2.371 4.268 0.022 0.032 0.089 0.128 0.146 0.21 0.055 0.077 0.114 0.151 0.175 0.225 1.322 1.602 1.481 3.701 0.416 5.477l0-0zM29.712 23.262c-0.073-0.088-0.144-0.178-0.209-0.27-0.197-0.28-0.202-0.287-0.217-0.361-0.231-0.382-0.794-1.395-2.341-4.183-0.136-0.245-0.444-0.334-0.69-0.198-0.121 0.068-0.218 0.162-0.289 0.28-0.143 0.239-0.149 0.538-0.013 0.781l1.343 2.42c0.080 0.144 0.053 0.324-0.065 0.439s-0.299 0.135-0.441 0.051l-6.46-3.876c-0.305-0.183-0.706-0.111-0.894 0.161-0.108 0.156-0.143 0.343-0.098 0.525 0.042 0.166 0.146 0.307 0.294 0.395 0 0 0.001 0.001 0.001 0.001l4.224 2.534c0.173 0.104 0.229 0.328 0.125 0.501s-0.327 0.229-0.501 0.125l-5.186-3.111c-0.147-0.088-0.32-0.114-0.487-0.072s-0.307 0.146-0.395 0.294c-0.089 0.147-0.114 0.32-0.073 0.487s0.146 0.307 0.294 0.396l5.186 3.111c0.173 0.104 0.229 0.328 0.125 0.501s-0.327 0.229-0.501 0.125l-4.225-2.535c-0.304-0.183-0.7-0.084-0.882 0.221-0.089 0.148-0.114 0.321-0.073 0.487s0.146 0.307 0.294 0.395l4.225 2.535c0.173 0.104 0.229 0.328 0.125 0.501s-0.327 0.229-0.501 0.125l-3.189-1.913c-0.147-0.088-0.32-0.114-0.487-0.072s-0.307 0.146-0.395 0.293c-0.088 0.148-0.114 0.321-0.073 0.487s0.146 0.307 0.294 0.395l6.465 3.878c1.049 0.629 2.259 0.847 3.405 0.613 1.135-0.232 2.072-0.88 2.639-1.825 0.916-1.527 0.785-3.26-0.352-4.637h-0z"></path>
    </symbol>
    <symbol id="icon-event-bookings" viewBox="0 0 32 32">
        <path d="M26.667 28v-2.667c0-1.414-0.562-2.771-1.562-3.771s-2.357-1.562-3.771-1.562h-1.333c-0.354 0-0.693-0.14-0.943-0.391s-0.391-0.589-0.391-0.943v-6.667c0-0.707-0.281-1.386-0.781-1.886s-1.178-0.781-1.886-0.781-1.386 0.281-1.886 0.781c-0.5 0.5-0.781 1.178-0.781 1.886v12l-3.2-4.267c-0.248-0.331-0.57-0.6-0.941-0.785s-0.779-0.282-1.193-0.282h-0.579c-1.153 0-2.088 0.935-2.088 2.088 0 0.379 0.103 0.751 0.297 1.075l3.703 6.171zM16 5.333v0zM24 13.333v0zM6.667 13.333v0zM9.791 7.124v0zM22.209 7.124v0z"></path>
        <path stroke-linejoin="round" stroke-linecap="round" stroke-miterlimit="4" stroke-width="1.3333" d="M26.667 28v-2.667c0-1.414-0.562-2.771-1.562-3.771s-2.357-1.562-3.771-1.562h-1.333c-0.354 0-0.693-0.14-0.943-0.391s-0.391-0.589-0.391-0.943v-6.667c0-0.707-0.281-1.386-0.781-1.886s-1.178-0.781-1.886-0.781v0c-0.707 0-1.386 0.281-1.886 0.781s-0.781 1.178-0.781 1.886v12l-3.2-4.267c-0.248-0.331-0.57-0.6-0.941-0.785s-0.779-0.282-1.193-0.282h-0.579c-1.153 0-2.088 0.935-2.088 2.088 0 0.379 0.103 0.751 0.297 1.075l3.703 6.171M16 5.333v-1.333M24 13.333h1.333M6.667 13.333h1.333M9.791 7.124l-0.943-0.943M22.209 7.124l0.943-0.943"></path>
    </symbol>
    <symbol id="icon-instagram" viewBox="0 0 32 32">
        <path d="M15.172 0c-4.12 0-4.637 0.018-6.255 0.092-1.615 0.074-2.717 0.33-3.682 0.705-0.998 0.387-1.844 0.906-2.687 1.749s-1.362 1.69-1.751 2.687c-0.376 0.965-0.632 2.068-0.705 3.682-0.072 1.618-0.091 2.136-0.091 6.256s0.018 4.636 0.092 6.254c0.074 1.615 0.33 2.718 0.705 3.682 0.388 0.998 0.906 1.844 1.75 2.687s1.689 1.364 2.686 1.751c0.965 0.375 2.068 0.631 3.683 0.705 1.618 0.074 2.135 0.092 6.255 0.092s4.636-0.018 6.254-0.092c1.615-0.074 2.719-0.33 3.684-0.705 0.997-0.387 1.843-0.907 2.686-1.751s1.362-1.69 1.751-2.687c0.373-0.965 0.629-2.068 0.705-3.682 0.073-1.618 0.092-2.134 0.092-6.254s-0.019-4.637-0.092-6.255c-0.076-1.615-0.332-2.717-0.705-3.682-0.389-0.998-0.907-1.844-1.751-2.687s-1.688-1.362-2.687-1.749c-0.967-0.375-2.070-0.631-3.685-0.705-1.618-0.074-2.133-0.092-6.255-0.092h0.005zM13.811 2.734c0.404-0.001 0.855 0 1.361 0 4.051 0 4.531 0.015 6.13 0.087 1.479 0.068 2.282 0.315 2.817 0.522 0.708 0.275 1.213 0.604 1.743 1.135s0.86 1.037 1.135 1.745c0.208 0.534 0.455 1.337 0.523 2.816 0.073 1.599 0.088 2.080 0.088 6.128s-0.016 4.529-0.088 6.128c-0.068 1.479-0.315 2.282-0.523 2.816-0.275 0.708-0.604 1.212-1.135 1.743s-1.035 0.86-1.743 1.135c-0.534 0.209-1.338 0.455-2.817 0.523-1.599 0.073-2.080 0.088-6.13 0.088s-4.531-0.016-6.13-0.088c-1.479-0.068-2.282-0.316-2.817-0.523-0.708-0.275-1.214-0.604-1.745-1.135s-0.86-1.035-1.135-1.744c-0.208-0.534-0.455-1.337-0.522-2.816-0.073-1.599-0.087-2.080-0.087-6.131s0.015-4.529 0.087-6.128c0.068-1.479 0.315-2.282 0.522-2.817 0.275-0.708 0.604-1.214 1.135-1.745s1.037-0.86 1.745-1.135c0.535-0.209 1.338-0.455 2.817-0.523 1.399-0.063 1.942-0.082 4.769-0.085v0.004zM23.27 5.253c-1.005 0-1.82 0.814-1.82 1.82s0.815 1.82 1.82 1.82c1.005 0 1.82-0.815 1.82-1.82s-0.815-1.82-1.82-1.82zM15.172 7.38c-4.302 0-7.791 3.488-7.791 7.791s3.488 7.789 7.791 7.789c4.303 0 7.789-3.487 7.789-7.789s-3.487-7.791-7.789-7.791zM15.172 10.114c2.793 0 5.057 2.264 5.057 5.057s-2.264 5.057-5.057 5.057c-2.793 0-5.057-2.264-5.057-5.057s2.264-5.057 5.057-5.057z"></path>
    </symbol>
    <symbol id="icon-members" viewBox="0 0 32 32">
        <path stroke-linejoin="miter" stroke-linecap="butt" stroke-miterlimit="4" stroke-width="0.6667" d="M11 5.824c1.573 0 3.107 0.484 4.396 1.385s2.268 2.177 2.807 3.654c0.539 1.477 0.611 3.085 0.205 4.604s-1.269 2.877-2.472 3.889l-0.405 0.341 0.482 0.218c1.982 0.897 3.688 2.308 4.94 4.088l0.005 0.007 0.005 0.007c0.097 0.125 0.168 0.268 0.208 0.421s0.049 0.312 0.026 0.469c-0.023 0.156-0.078 0.306-0.161 0.441s-0.192 0.251-0.322 0.342c-0.129 0.091-0.276 0.155-0.43 0.187s-0.314 0.034-0.469 0.003c-0.155-0.031-0.302-0.094-0.432-0.183s-0.241-0.204-0.326-0.338l-0.004-0.007-0.005-0.007-0.174-0.24c-0.885-1.183-2.026-2.153-3.339-2.835-1.401-0.728-2.956-1.108-4.535-1.108s-3.134 0.38-4.535 1.108c-1.401 0.728-2.605 1.783-3.512 3.075l-0.001 0.001c-0.107 0.153-0.249 0.278-0.415 0.365s-0.349 0.131-0.536 0.13h-0.003c-0.239 0.001-0.473-0.074-0.667-0.213l-0.001-0.001-0.091-0.072c-0.203-0.175-0.34-0.416-0.386-0.682-0.053-0.304 0.017-0.618 0.195-0.87 1.252-1.779 2.958-3.19 4.94-4.087l0.482-0.218-0.405-0.341c-1.203-1.012-2.066-2.37-2.472-3.889s-0.334-3.127 0.205-4.604c0.539-1.477 1.519-2.753 2.807-3.654s2.823-1.385 4.395-1.385zM19.11 6.122h0.001l0.006-0.001c0.673-0.192 1.37-0.289 2.070-0.288h0.002c1.573-0.005 3.11 0.476 4.4 1.376s2.272 2.176 2.812 3.654c0.539 1.478 0.61 3.086 0.203 4.606s-1.273 2.877-2.48 3.887l-0.407 0.341 0.483 0.219c1.982 0.897 3.688 2.308 4.94 4.088l0.001 0.002c0.089 0.124 0.152 0.266 0.186 0.415s0.039 0.304 0.012 0.454c-0.026 0.151-0.082 0.294-0.165 0.423s-0.189 0.24-0.315 0.328l-0.004 0.003c-0.195 0.139-0.428 0.213-0.667 0.212-0.187-0.001-0.371-0.046-0.537-0.132-0.125-0.065-0.236-0.152-0.329-0.255l-0.088-0.109c-0.909-1.289-2.114-2.342-3.514-3.069s-2.955-1.108-4.533-1.109h-0.001c-0.309 0-0.606-0.122-0.825-0.341s-0.342-0.516-0.342-0.826c0-0.309 0.123-0.606 0.342-0.825s0.516-0.342 0.825-0.342c1.415 0 2.771-0.562 3.772-1.562s1.562-2.357 1.562-3.771c-0-1.414-0.562-2.771-1.562-3.771s-2.357-1.563-3.772-1.563c-0.487-0.001-0.973 0.067-1.441 0.201l-0.004 0.001c-0.148 0.044-0.304 0.058-0.458 0.042s-0.303-0.063-0.438-0.138-0.255-0.175-0.352-0.296c-0.096-0.121-0.167-0.261-0.209-0.41s-0.054-0.305-0.035-0.458c0.019-0.154 0.068-0.302 0.145-0.436s0.179-0.252 0.302-0.346c0.123-0.094 0.263-0.164 0.412-0.203zM12.040 8.269c-1.035-0.206-2.107-0.1-3.081 0.303s-1.807 1.087-2.393 1.964c-0.586 0.877-0.899 1.908-0.899 2.963 0 1.414 0.562 2.771 1.562 3.771s2.357 1.562 3.771 1.562c1.055 0 2.086-0.312 2.963-0.898s1.561-1.419 1.965-2.394c0.404-0.974 0.509-2.047 0.303-3.081s-0.714-1.985-1.46-2.73c-0.746-0.746-1.697-1.254-2.731-1.46z"></path>
    </symbol>
    <symbol id="icon-membership-organisations" viewBox="0 0 32 32">
        <path d="M15.993 6.667c-2.381 0-4.319 1.956-4.319 4.347 0 1.513 0.777 2.848 1.95 3.627-1.417 0.474-2.642 1.359-3.541 2.517-0.497-0.382-1.052-0.69-1.651-0.91 0.908-0.674 1.501-1.757 1.501-2.974 0-2.028-1.64-3.688-3.656-3.688s-3.656 1.66-3.656 3.688c0 1.218 0.594 2.301 1.502 2.975-2.406 0.888-4.124 3.212-4.124 5.947v1.921c0 0.146 0.059 0.287 0.163 0.39s0.244 0.161 0.391 0.16h8.43c0.020 0.002 0.041 0.003 0.061 0.003h13.897c0.020 0 0.041-0.001 0.061-0.003h8.431c0.303-0.001 0.549-0.247 0.549-0.55v-1.921c0-2.735-1.715-5.060-4.12-5.948 0.909-0.674 1.502-1.757 1.502-2.975 0-2.028-1.64-3.688-3.656-3.688s-3.656 1.66-3.656 3.688c0 1.217 0.594 2.3 1.501 2.974-0.6 0.221-1.156 0.529-1.653 0.913-0.899-1.159-2.123-2.045-3.539-2.519 1.173-0.778 1.95-2.114 1.95-3.627 0-2.391-1.939-4.347-4.32-4.347h-0zM15.993 7.77c1.781 0 3.216 1.445 3.216 3.244 0 1.785-1.413 3.216-3.174 3.239-0.014 0-0.028-0.002-0.042-0.002s-0.028 0.002-0.042 0.002c-1.761-0.023-3.173-1.454-3.173-3.239 0-1.799 1.434-3.244 3.215-3.244h0zM6.277 10.688c1.413 0 2.553 1.147 2.553 2.585 0 1.429-1.125 2.57-2.525 2.586-0.009 0-0.018-0.001-0.028-0.001s-0.018 0.001-0.028 0.001c-1.4-0.015-2.525-1.158-2.525-2.586 0-1.438 1.14-2.585 2.553-2.585h0zM25.71 10.688c1.413 0 2.553 1.147 2.553 2.585 0 1.429-1.125 2.57-2.525 2.586-0.009 0-0.018-0.001-0.028-0.001s-0.018 0.001-0.028 0.001c-1.4-0.015-2.525-1.158-2.525-2.586 0-1.438 1.14-2.585 2.553-2.585v0zM15.951 15.355c0.014 0 0.028 0.002 0.042 0.002s0.028-0.002 0.042-0.002c3.532 0.023 6.358 2.873 6.358 6.442l-0 1.771h-12.799v-1.771c0-3.569 2.825-6.419 6.357-6.442h0zM6.235 16.963c0.014 0 0.028 0.002 0.042 0.002s0.028-0.002 0.042-0.002c1.194 0.010 2.285 0.421 3.153 1.111-0.621 1.099-0.98 2.368-0.98 3.723v1.766h-7.389v-1.368c0-2.9 2.28-5.21 5.132-5.232l0 0zM25.668 16.963c0.014 0 0.028 0.002 0.042 0.002s0.028-0.002 0.042-0.002c2.852 0.023 5.132 2.332 5.132 5.232v1.368h-7.393l-0-1.766c0-1.355-0.358-2.623-0.978-3.721 0.868-0.69 1.959-1.103 3.155-1.112h-0z"></path>
    </symbol>
    <symbol id="icon-national-associations" viewBox="0 0 32 32">
        <path d="M18.592 11.121c-0.277 0-0.503-0.225-0.503-0.503v-0.854c0-0.277 0.225-0.503 0.503-0.503s0.503 0.225 0.503 0.503v0.854c0 0.278-0.226 0.503-0.503 0.503z"></path>
        <path d="M16.478 11.121c-0.277 0-0.503-0.225-0.503-0.503v-0.854c0-0.277 0.225-0.503 0.503-0.503s0.503 0.225 0.503 0.503v0.854c-0 0.278-0.225 0.503-0.503 0.503z"></path>
        <path d="M14.364 11.121c-0.277 0-0.503-0.225-0.503-0.503v-0.854c0-0.277 0.225-0.503 0.503-0.503s0.503 0.225 0.503 0.503v0.854c0 0.278-0.225 0.503-0.503 0.503z"></path>
        <path d="M18.592 14.615c-0.277 0-0.503-0.225-0.503-0.503v-0.854c0-0.277 0.225-0.503 0.503-0.503s0.503 0.225 0.503 0.503v0.854c0 0.278-0.226 0.503-0.503 0.503z"></path>
        <path d="M16.478 14.615c-0.277 0-0.503-0.225-0.503-0.503v-0.854c0-0.277 0.225-0.503 0.503-0.503s0.503 0.225 0.503 0.503v0.854c-0 0.278-0.225 0.503-0.503 0.503z"></path>
        <path d="M14.364 14.615c-0.277 0-0.503-0.225-0.503-0.503v-0.854c0-0.277 0.225-0.503 0.503-0.503s0.503 0.225 0.503 0.503v0.854c0 0.278-0.225 0.503-0.503 0.503z"></path>
        <path d="M18.592 18.11c-0.277 0-0.503-0.225-0.503-0.503v-0.855c0-0.277 0.225-0.503 0.503-0.503s0.503 0.225 0.503 0.503v0.855c0 0.278-0.226 0.503-0.503 0.503z"></path>
        <path d="M16.478 18.11c-0.277 0-0.503-0.225-0.503-0.503v-0.855c0-0.277 0.225-0.503 0.503-0.503s0.503 0.225 0.503 0.503v0.855c-0 0.278-0.225 0.503-0.503 0.503z"></path>
        <path d="M14.364 18.11c-0.277 0-0.503-0.225-0.503-0.503v-0.855c0-0.277 0.225-0.503 0.503-0.503s0.503 0.225 0.503 0.503v0.855c0 0.278-0.225 0.503-0.503 0.503z"></path>
        <path d="M18.592 21.603c-0.277 0-0.503-0.225-0.503-0.503v-0.855c0-0.277 0.225-0.503 0.503-0.503s0.503 0.225 0.503 0.503v0.855c0 0.278-0.226 0.503-0.503 0.503z"></path>
        <path d="M16.478 21.603c-0.277 0-0.503-0.225-0.503-0.503v-0.855c0-0.277 0.225-0.503 0.503-0.503s0.503 0.225 0.503 0.503v0.855c-0 0.278-0.225 0.503-0.503 0.503z"></path>
        <path d="M14.364 21.603c-0.277 0-0.503-0.225-0.503-0.503v-0.855c0-0.277 0.225-0.503 0.503-0.503s0.503 0.225 0.503 0.503v0.855c0 0.278-0.225 0.503-0.503 0.503z"></path>
        <path d="M18.592 25.098c-0.277 0-0.503-0.225-0.503-0.503v-0.854c0-0.277 0.225-0.503 0.503-0.503s0.503 0.225 0.503 0.503v0.854c0 0.277-0.226 0.503-0.503 0.503z"></path>
        <path d="M16.478 25.098c-0.277 0-0.503-0.225-0.503-0.503v-0.854c0-0.277 0.225-0.503 0.503-0.503s0.503 0.225 0.503 0.503v0.854c-0 0.277-0.225 0.503-0.503 0.503z"></path>
        <path d="M14.364 25.098c-0.277 0-0.503-0.225-0.503-0.503l0-0.854c0-0.277 0.225-0.503 0.503-0.503s0.503 0.225 0.503 0.503v0.854c-0 0.277-0.225 0.503-0.503 0.503z"></path>
        <path d="M0 28.575c0 0.277 0.225 0.503 0.503 0.503h30.62c0.277 0 0.503-0.225 0.503-0.503s-0.225-0.503-0.503-0.503h-0.93v-14.437c0-0.277-0.225-0.503-0.503-0.503l-8.21 0v-10.408c0-0.176-0.092-0.339-0.242-0.43s-0.337-0.097-0.493-0.016l-9.334 4.86c-0.167 0.087-0.27 0.258-0.27 0.446v9.091h-9.033c-0.277 0-0.503 0.225-0.503 0.503v10.894h-1.105c-0.277-0-0.502 0.225-0.502 0.502l0 0zM21.482 20.749h7.707v7.324l-7.707-0v-7.324zM21.482 17.255h7.707v2.489l-7.707-0v-2.489zM21.482 14.138h7.707v2.111h-7.707v-2.111zM12.148 7.89l8.328-4.336v24.518h-8.328v-20.182zM5.099 24.056c0-1.044 0.827-1.893 1.843-1.893s1.844 0.849 1.844 1.893v4.016h-3.687v-4.016zM2.613 17.681h8.53v10.391h-1.352v-4.016c0-1.598-1.278-2.898-2.849-2.898s-2.849 1.3-2.849 2.898v4.016h-1.48v-10.391z"></path>
    </symbol>
    <symbol id="icon-payments" viewBox="0 0 32 32">
        <path stroke-linejoin="miter" stroke-linecap="butt" stroke-miterlimit="4" stroke-width="0.6667" d="M6.5 5.333h19c1.105 0 2.165 0.439 2.946 1.221s1.221 1.841 1.221 2.946v13c0 1.105-0.439 2.165-1.221 2.946s-1.841 1.221-2.946 1.221h-19c-1.105 0-2.165-0.439-2.946-1.221s-1.221-1.841-1.221-2.946v-13c0-1.105 0.439-2.165 1.221-2.946s1.841-1.221 2.946-1.221zM3.667 22.5c0 0.751 0.299 1.472 0.83 2.003s1.252 0.83 2.003 0.83h19c0.751 0 1.472-0.299 2.003-0.83s0.83-1.252 0.83-2.003v-9.833h-24.667v9.833zM21 19.333h3c0.177 0 0.346 0.070 0.471 0.195s0.195 0.295 0.195 0.471-0.070 0.346-0.195 0.471c-0.125 0.125-0.295 0.195-0.471 0.195h-3c-0.177 0-0.346-0.070-0.471-0.195s-0.195-0.295-0.195-0.471 0.070-0.346 0.195-0.471c0.125-0.125 0.295-0.195 0.471-0.195zM6.5 6.667c-0.751 0-1.472 0.299-2.003 0.83s-0.83 1.252-0.83 2.003v1.833h24.667v-1.833c0-0.751-0.299-1.472-0.83-2.003s-1.252-0.83-2.003-0.83h-19z"></path>
    </symbol>
    <symbol id="icon-arrow" viewBox="0 0 32 32">
        <path d="M19.414 27.414l10-10c0.781-0.781 0.781-2.047 0-2.828l-10-10c-0.781-0.781-2.047-0.781-2.828 0s-0.781 2.047 0 2.828l6.586 6.586h-19.172c-1.105 0-2 0.895-2 2s0.895 2 2 2h19.172l-6.586 6.586c-0.39 0.39-0.586 0.902-0.586 1.414s0.195 1.024 0.586 1.414c0.781 0.781 2.047 0.781 2.828 0z"></path>
    </symbol>
</defs>
</svg>
